# xmcd CD database file
#
# Track frame offsets:
#	150
#	12532
#	18521
#	31988
#	44973
#	54443
#	64119
#	80685
#	91084
#	97267
#	110861
#	118736
#	130747
#	139032
#	159350
#	176481
#	191917
#	206571
#	215563
#	234567
#	241355
#	251291
#	264648
#	279404
#	292162
#	303613
#
# Disc length: 4233 seconds
#
# Revision: 0
# Processed by: cddbd v1.5.2PL0 Copyright (c) Steve Scherf et al.
# Submitted via: CDex 1.70beta1
#
DISCID=8e10871a
DTITLE=jean carlos  - jean carlos 
DYEAR=1900
DGENRE=Salsa
TTITLE0=01 eclipse total del amor alkla - 01 eclipse total del amor alkla
TTITLE1=02 marinero de luces jean carlos - 02 marinero de luces jean carlos
TTITLE2=03 yo por tu amor alkla - 03 yo por tu amor alkla
TTITLE3=04 tu vas a volar jean carlos - 04 tu vas a volar jean carlos
TTITLE4=05 quien eres tu alkla - 05 quien eres tu alkla
TTITLE5=06 me extra - aras jean carlos
TTITLE6=07 angel alkla - 07 angel alkla
TTITLE7=08 si no te hubieras ido jean carlos - 08 si no te hubieras ido jean carlos
TTITLE8=09 ojla que no puedas alkla - 09 ojla que no puedas alkla
TTITLE9=10 abrazame muy fuerte jean carlos - 10 abrazame muy fuerte jean carlos
TTITLE10=11 dame veneno alkla - 11 dame veneno alkla
TTITLE11=12 no me cambie por el jean carlos - 12 no me cambie por el jeen carlos
TTITLE12=13 preciosa mia alkla - 13 preciosa mia alkla
TTITLE13=14 no puedo olvidarme de ti jean carlos - 14 no puedo olvidarme de ti jean carlos
TTITLE14=15 si me dejas no vale alkla - 15 si me dejas no vale alkla
TTITLE15=16 digale jean carlos - 16 digale jean carlos
TTITLE16=17 no te puedo perdonar alkla - 17 no te puedo perdonar alkla
TTITLE17=18 que levante la manos jean carlos - 18 que levante la manos jean carlos
TTITLE18=19 amantes prohibido alkla - 19 amantes prohibido alkla
TTITLE19=20 son de amores jean carlos - 20 son de amores jean carlos
TTITLE20=21 despues de ti alkla - 21 despues de ti alkla
TTITLE21=22 a puro dolor jean carlos - 22 a puro dolor jean carlos
TTITLE22=23 una nueva noche fria alkla - 23 una nueva noche fria alkla
TTITLE23=24 nominado jean carlos - 24 nominado jean carlos
TTITLE24=25 el baile del piripi pa alkla - 25 el baile del piripi pa alkla
TTITLE25=26 quiereme jean carlos - 26 quiereme jean carlos
EXTD=
EXTT0=
EXTT1=
EXTT2=
EXTT3=
EXTT4=
EXTT5=
EXTT6=
EXTT7=
EXTT8=
EXTT9=
EXTT10=
EXTT11=
EXTT12=
EXTT13=
EXTT14=
EXTT15=
EXTT16=
EXTT17=
EXTT18=
EXTT19=
EXTT20=
EXTT21=
EXTT22=
EXTT23=
EXTT24=
EXTT25=
PLAYORDER=
